<svg width="102" height="102" viewBox="0 0 102 102" fill="none" xmlns="http://www.w3.org/2000/svg">
<circle cx="51.0187" cy="50.6979" r="50.6979" fill="url(#paint0_radial)"/>
<path d="M50.413 39.7391C49.9958 41.2621 48.9235 44.3956 47.9722 44.7461H52.7915C51.8526 43.5778 50.0625 40.9408 50.413 39.7391Z" stroke="black" stroke-width="1.2" stroke-linejoin="bevel"/>
<path d="M51.0186 19.5851C48.3724 29.3232 39.0154 50.5775 22.7571 57.6905" stroke="black" stroke-width="1.5" stroke-linecap="round" stroke-linejoin="round"/>
<path d="M51.0186 19.5851C53.6652 29.3247 63.0237 50.5823 79.2844 57.6963" stroke="black" stroke-width="1.5" stroke-linecap="round" stroke-linejoin="round"/>
<path d="M42.0381 47.31C44.4137 45.2999 48.7386 36.6502 50.604 32.5766C53.3451 39.7948 57.7614 45.4065 59.6268 47.31C55.5152 47.31 51.5177 49.1374 50.604 53.7059C49.9645 48.8633 44.6269 47.4242 42.0381 47.31Z" stroke="black" stroke-width="2"/>
<path d="M37.1511 50.7687C40.6529 50.4395 47.3331 51.0919 46.0402 56.3356" stroke="black" stroke-width="1.5" stroke-linecap="round"/>
<path d="M63.9919 50.9234C60.4884 50.6356 53.8047 51.206 55.0983 55.7904" stroke="black" stroke-width="1.5" stroke-linecap="round"/>
<path d="M50.4859 62.1124H30.8221C25.3598 62.1123 22.5509 65.9359 26.1403 68.9791C27.9363 70.5019 31.4462 68.9791 30.8221 66.0919C30.5019 64.611 28.0128 64.2972 27.5446 66.0919C27.5186 66.378 27.5759 67.0595 28.0128 67.4965" stroke="black" stroke-width="1.5" stroke-linecap="round"/>
<path d="M51.0188 62.1124H70.6792C76.1406 62.1123 78.949 65.9359 75.3603 68.9791C73.5645 70.5019 70.0552 68.9791 70.6792 66.0919C70.9993 64.611 73.488 64.2972 73.9561 66.0919C73.9821 66.378 73.9249 67.0595 73.488 67.4965" stroke="black" stroke-width="1.5" stroke-linecap="round"/>
<path d="M43.6636 56.2385C43.4053 58.1324 41.5033 59.1385 37.5166 59.1385C33.8357 59.1385 30.002 59.1385 30.002 59.1385C31.9634 56.862 35.8864 53.6096 38.145 53.6096C41.0278 53.1979 43.1676 54.17 43.6636 56.2385Z" fill="black"/>
<path d="M41.6776 56.3763C41.5201 57.4595 40.3598 58.0348 37.9277 58.0348C35.6823 58.0348 33.3435 58.0348 33.3435 58.0348C34.5401 56.7329 36.9332 54.8728 38.3111 54.8728C40.0697 54.6374 41.375 55.1933 41.6776 56.3763Z" fill="#FFDC23"/>
<path d="M57.1626 56.1401C57.4208 58.0983 59.3224 59.1385 63.3082 59.1385C66.9883 59.1385 70.8213 59.1385 70.8213 59.1385C68.8602 56.7847 64.9381 53.422 62.68 53.422C59.7978 52.9963 57.6585 54.0013 57.1626 56.1401Z" fill="black"/>
<path d="M59.2577 56.2383C59.4153 57.3583 60.5753 57.9532 63.0068 57.9532C65.2518 57.9532 67.5901 57.9532 67.5901 57.9532C66.3938 56.607 64.0011 54.6838 62.6236 54.6838C60.8653 54.4404 59.5603 55.0152 59.2577 56.2383Z" fill="#FFDC23"/>
<defs>
<radialGradient id="paint0_radial" cx="0" cy="0" r="1" gradientUnits="userSpaceOnUse" gradientTransform="translate(51.0187 50.6979) rotate(90) scale(50.6979)">
<stop offset="0.598958" stop-color="#FFDC23"/>
<stop offset="0.880208" stop-color="#FFC329"/>
</radialGradient>
</defs>
</svg>
